<svg width="218" height="69" viewBox="0 0 218 69" fill="none" xmlns="http://www.w3.org/2000/svg">
<rect x="24.4719" width="168.244" height="34.1835" rx="5" fill="white"/>
<path d="M46.7514 27.6974V10.5374H61.1274C62.9034 10.5374 64.2794 10.9854 65.2554 11.8814C66.2474 12.7774 66.7434 14.1374 66.7434 15.9614C66.7434 17.7854 66.2474 19.1454 65.2554 20.0414C64.2794 20.9374 62.9034 21.3854 61.1274 21.3854H50.5914V27.6974H46.7514ZM60.6714 13.6574H50.5914V18.2414L60.6714 18.2654C61.3754 18.2654 61.9114 18.0894 62.2794 17.7374C62.6634 17.3854 62.8554 16.7934 62.8554 15.9614C62.8554 15.1134 62.6634 14.5214 62.2794 14.1854C61.9114 13.8334 61.3754 13.6574 60.6714 13.6574ZM69.1342 27.6974V10.5374H72.9742V24.5774H85.5262V27.6974H69.1342ZM86.491 27.6974L94.219 10.5374H100.147L107.875 27.6974H103.699L102.067 24.0734H92.299L90.667 27.6974H86.491ZM93.691 20.9534H100.675L97.339 13.5374H97.027L93.691 20.9534ZM109.246 27.8174V24.6974L123.046 24.7214C123.75 24.7214 124.286 24.5614 124.654 24.2414C125.038 23.9054 125.23 23.3694 125.23 22.6334C125.23 21.8974 125.038 21.3694 124.654 21.0494C124.286 20.7134 123.75 20.5454 123.046 20.5454H114.454C112.678 20.5454 111.294 20.1214 110.302 19.2734C109.326 18.4094 108.838 17.1454 108.838 15.4814C108.838 13.8174 109.326 12.5614 110.302 11.7134C111.294 10.8494 112.678 10.4174 114.454 10.4174H127.942V13.5374L114.862 13.5134C114.174 13.5134 113.638 13.6734 113.254 13.9934C112.87 14.2974 112.678 14.7934 112.678 15.4814C112.678 16.1694 112.87 16.6734 113.254 16.9934C113.638 17.2974 114.174 17.4494 114.862 17.4494H123.454C125.23 17.4494 126.606 17.8894 127.582 18.7694C128.574 19.6334 129.07 20.9214 129.07 22.6334C129.07 24.3294 128.574 25.6174 127.582 26.4974C126.606 27.3774 125.23 27.8174 123.454 27.8174H109.246ZM131.478 27.6974V10.5374H134.694L142.638 16.1054H142.758L150.702 10.5374H153.918V27.6974H150.078V15.3374L144.63 18.9854V27.6974H140.79V18.9854L135.318 15.3374V27.6974H131.478ZM155.843 27.6974L163.571 10.5374H169.499L177.227 27.6974H173.051L171.419 24.0734H161.651L160.019 27.6974H155.843ZM163.043 20.9534H170.027L166.691 13.5374H166.379L163.043 20.9534Z" fill="#FCD54C"/>
<path d="M48.074 51.9462C48.074 53.1102 47.8865 54.204 47.5115 55.2274C47.1443 56.2509 46.6209 57.1415 45.9412 57.8993C45.2615 58.6571 44.4451 59.2548 43.492 59.6923C42.5466 60.1298 41.4959 60.3485 40.3396 60.3485H31.867V57.9462H40.3396C41.1677 57.9462 41.9099 57.7899 42.5662 57.4774C43.2302 57.1649 43.7888 56.7391 44.242 56.2001C44.7029 55.6532 45.0545 55.0165 45.2966 54.2899C45.5466 53.5555 45.6716 52.7743 45.6716 51.9462C45.6716 51.118 45.5466 50.3407 45.2966 49.6141C45.0545 48.8876 44.7029 48.2548 44.242 47.7157C43.7888 47.1688 43.2302 46.7391 42.5662 46.4266C41.9099 46.1063 41.1677 45.9462 40.3396 45.9462H30.6716V60.3485H28.2693V43.5438H40.3396C41.4959 43.5438 42.5466 43.7665 43.492 44.2118C44.4451 44.6493 45.2615 45.2509 45.9412 46.0165C46.6209 46.7743 47.1443 47.6649 47.5115 48.6884C47.8865 49.704 48.074 50.7899 48.074 51.9462ZM69.9177 55.5438C69.9177 56.2157 69.7576 56.8446 69.4373 57.4305C69.1248 58.0087 68.6951 58.5165 68.1482 58.954C67.6091 59.3837 66.9763 59.7235 66.2498 59.9735C65.5232 60.2235 64.7459 60.3485 63.9177 60.3485H50.4998V57.9462H63.9177C64.4099 57.9462 64.8748 57.8837 65.3123 57.7587C65.7498 57.6337 66.1287 57.4618 66.449 57.243C66.7771 57.0243 67.0349 56.7704 67.2224 56.4813C67.4177 56.1844 67.5154 55.8719 67.5154 55.5438V54.3485H56.4998C55.6716 54.3485 54.8904 54.1923 54.156 53.8798C53.4295 53.5673 52.7927 53.1415 52.2459 52.6024C51.7068 52.0555 51.281 51.4188 50.9685 50.6923C50.656 49.9579 50.4998 49.1766 50.4998 48.3485V43.5438H52.9021V48.3485C52.9021 48.8485 52.9959 49.3173 53.1834 49.7548C53.3709 50.1923 53.6248 50.5751 53.9451 50.9032C54.2732 51.2235 54.656 51.4774 55.0935 51.6649C55.531 51.8524 55.9998 51.9462 56.4998 51.9462H67.5154V43.5438H69.9177V55.5438ZM76.2107 60.3485H73.8084V43.5438H75.0037C75.7849 43.5438 76.6131 43.6454 77.4881 43.8485C78.3709 44.0516 79.2693 44.3446 80.1834 44.7274C81.0974 45.1102 82.0076 45.5751 82.9138 46.1219C83.8279 46.661 84.7107 47.2743 85.5623 47.9618C86.4138 48.6493 87.2146 49.3993 87.9646 50.2118C88.7146 51.0165 89.3865 51.8759 89.9802 52.7899V43.5438H92.3826V60.3485H89.9802C89.9802 59.1141 89.7654 57.9266 89.3357 56.786C88.906 55.6376 88.3318 54.5555 87.6131 53.5399C86.8943 52.5243 86.0662 51.5907 85.1287 50.7391C84.1912 49.8798 83.2107 49.1259 82.1873 48.4774C81.1716 47.829 80.1482 47.2977 79.117 46.8837C78.0857 46.4618 77.117 46.1805 76.2107 46.0399V60.3485ZM115.527 60.3485H113.125V55.5438H99.7185V53.1532H113.125V45.9462H104.511C103.691 45.9462 102.918 46.1063 102.191 46.4266C101.465 46.7391 100.832 47.1688 100.293 47.7157C99.7537 48.2548 99.324 48.8876 99.0037 49.6141C98.6912 50.3407 98.5349 51.118 98.5349 51.9462V60.3485H96.1326V51.9462C96.1326 51.1727 96.2302 50.4305 96.4256 49.7196C96.6287 49.0009 96.9099 48.3329 97.2693 47.7157C97.6365 47.0907 98.074 46.5243 98.5818 46.0165C99.0974 45.5009 99.6638 45.0594 100.281 44.6923C100.906 44.3251 101.574 44.0438 102.285 43.8485C102.996 43.6454 103.738 43.5438 104.511 43.5438H115.527V60.3485ZM131.652 60.3485H129.25V51.9462C129.25 51.118 129.094 50.3407 128.781 49.6141C128.469 48.8876 128.039 48.2548 127.492 47.7157C126.953 47.1688 126.316 46.7391 125.582 46.4266C124.855 46.1063 124.078 45.9462 123.25 45.9462H121.961V60.3485H119.558V43.5438H123.25C124.015 43.5438 124.75 43.6454 125.453 43.8485C126.164 44.0438 126.828 44.3212 127.445 44.6805C128.062 45.0399 128.625 45.4696 129.133 45.9696C129.64 46.4696 130.082 47.0243 130.457 47.6337C130.824 47.0243 131.261 46.4696 131.769 45.9696C132.277 45.4696 132.84 45.0399 133.457 44.6805C134.074 44.3212 134.734 44.0438 135.437 43.8485C136.148 43.6454 136.886 43.5438 137.652 43.5438H141.355V60.3485H138.953V45.9462H137.652C136.824 45.9462 136.047 46.1063 135.32 46.4266C134.594 46.7391 133.957 47.1688 133.41 47.7157C132.871 48.2548 132.441 48.8876 132.121 49.6141C131.808 50.3407 131.652 51.118 131.652 51.9462V60.3485ZM147.789 60.3485H145.386V43.5438H147.789V60.3485ZM169.422 60.3485H158.605C157.441 60.3485 156.383 60.1298 155.429 59.6923C154.476 59.2548 153.66 58.6571 152.98 57.8993C152.308 57.1415 151.789 56.2509 151.422 55.2274C151.054 54.204 150.871 53.1102 150.871 51.9462C150.871 50.7899 151.054 49.704 151.422 48.6884C151.789 47.6649 152.308 46.7743 152.98 46.0165C153.66 45.2509 154.476 44.6493 155.429 44.2118C156.383 43.7665 157.441 43.5438 158.605 43.5438H169.422V45.9462H158.605C157.777 45.9462 157.031 46.1063 156.367 46.4266C155.711 46.7391 155.152 47.1688 154.691 47.7157C154.238 48.2548 153.886 48.8876 153.636 49.6141C153.394 50.3407 153.273 51.118 153.273 51.9462C153.273 52.7743 153.394 53.5555 153.636 54.2899C153.886 55.0165 154.238 55.6532 154.691 56.2001C155.152 56.7391 155.711 57.1649 156.367 57.4774C157.031 57.7899 157.777 57.9462 158.605 57.9462H169.422V60.3485ZM190.89 55.5438C190.89 56.2157 190.765 56.8446 190.515 57.4305C190.265 58.0087 189.922 58.5165 189.484 58.954C189.054 59.3837 188.547 59.7235 187.961 59.9735C187.383 60.2235 186.761 60.3485 186.097 60.3485H171.496V57.9462H186.097C186.433 57.9462 186.746 57.8837 187.035 57.7587C187.324 57.6337 187.574 57.4618 187.785 57.243C188.004 57.0243 188.176 56.7704 188.301 56.4813C188.426 56.1844 188.488 55.8719 188.488 55.5438C188.488 55.2157 188.426 54.9071 188.301 54.618C188.176 54.329 188.004 54.0751 187.785 53.8563C187.574 53.6376 187.324 53.4657 187.035 53.3407C186.746 53.2157 186.433 53.1532 186.097 53.1532H176.301C175.644 53.1532 175.023 53.0282 174.437 52.7782C173.851 52.5282 173.34 52.1884 172.902 51.7587C172.472 51.3212 172.129 50.8094 171.871 50.2235C171.621 49.6376 171.496 49.0126 171.496 48.3485C171.496 47.6923 171.621 47.0712 171.871 46.4852C172.129 45.8993 172.472 45.3915 172.902 44.9618C173.34 44.5243 173.851 44.1805 174.437 43.9305C175.023 43.6727 175.644 43.5438 176.301 43.5438H189.695V45.9462H176.301C175.972 45.9462 175.66 46.0087 175.363 46.1337C175.074 46.2587 174.82 46.4305 174.601 46.6493C174.383 46.868 174.211 47.1259 174.086 47.4227C173.961 47.7118 173.898 48.0204 173.898 48.3485C173.898 48.6766 173.961 48.9891 174.086 49.286C174.211 49.5751 174.383 49.829 174.601 50.0477C174.82 50.2665 175.074 50.4384 175.363 50.5634C175.66 50.6884 175.972 50.7509 176.301 50.7509H186.097C186.761 50.7509 187.383 50.8798 187.961 51.1376C188.547 51.3876 189.054 51.7313 189.484 52.1688C189.922 52.5985 190.265 53.1063 190.515 53.6923C190.765 54.2704 190.89 54.8876 190.89 55.5438Z" fill="white"/>
</svg>
